# xmcd CD database file
#
# Track frame offsets:
#	150
#	21780
#	35852
#	54382
#	69345
#	82735
#	96504
#	113285
#	126277
#	139367
#	152712
#	168470
#
# Disc length: 2380 seconds
#
# Revision: 2
# Processed by: cddbd v1.5.2PL0 Copyright (c) Steve Scherf et al.
# Submitted via: CDex 1.50
#
DISCID=9b094a0c
DTITLE=Ronnie McDowell - Now and Again - the Best of
DYEAR=1998
DGENRE=Country
TTITLE0=My Heart Will Go On
TTITLE1=Not Even Wild Horses
TTITLE2=That Thing You Do
TTITLE3=Got A Thing Goin' On
TTITLE4=Good Fire
TTITLE5=That Just Made Love To Look
TTITLE6=Dream Lover
TTITLE7=Older Women
TTITLE8=In A New York Minute
TTITLE9=You're Gonna Ruin My Bad Reputation
TTITLE10=Unchained Melody
TTITLE11=It's Only Make Believe
EXTD=YEAR: 1998
EXTT0=
EXTT1=
EXTT2=
EXTT3=
EXTT4=
EXTT5=
EXTT6=
EXTT7=
EXTT8=
EXTT9=
EXTT10=
EXTT11=
PLAYORDER=
